<svg id="Warstwa_1" data-name="Warstwa 1" xmlns="http://www.w3.org/2000/svg" viewBox="0 0 189.832 47.104">
  <defs>
    <style>
      .cls-1 {
        fill: #ffa400;
      }
    </style>
  </defs>
  <g>
    <path class="cls-1" d="M61.647,21.249l.29,1.08.31-1.08Z" transform="translate(-9.117 -13.029)"/>
    <path class="cls-1" d="M82.407,17.469l-8.88,26.64a2.614,2.614,0,0,1-1.02,1.41,2.971,2.971,0,0,1-1.8.57,3.147,3.147,0,0,1-1.8-.57,2.538,2.538,0,0,1-1.08-1.41l-5.89-21.78.31-1.08h-.6l.29,1.08-6.17,21.78a2.573,2.573,0,0,1-1.05,1.41,3.1,3.1,0,0,1-1.83.57,3.011,3.011,0,0,1-1.77-.57,2.9,2.9,0,0,1-1.11-1.41l-8.88-26.64a4.675,4.675,0,0,1,.03-3.03,2.184,2.184,0,0,1,2.25-1.17,2.838,2.838,0,0,1,1.89.63,4.537,4.537,0,0,1,1.23,2.13L53,36.259l6.13-20.71a3.414,3.414,0,0,1,1.02-1.65,3.379,3.379,0,0,1,3.93,0,2.981,2.981,0,0,1,.99,1.65l5.42,21.12,6.58-20.64q.84-2.76,3.12-2.76a2.32,2.32,0,0,1,2.28,1.17A3.794,3.794,0,0,1,82.407,17.469Z" transform="translate(-9.117 -13.029)"/>
    <path class="cls-1" d="M116.8,21.189a16.583,16.583,0,0,0-28.68,0,16.683,16.683,0,0,0-2.19,8.52,17.686,17.686,0,0,0,2.01,8.49,15.564,15.564,0,0,0,5.49,5.94,15.2,15.2,0,0,0,15.72,0,15.551,15.551,0,0,0,3.72-3.28v2.23a3.06,3.06,0,1,0,6.12,0V29.709A16.683,16.683,0,0,0,116.8,21.189Zm-5.07,14.25a10.451,10.451,0,0,1-3.78,4.02,10.819,10.819,0,0,1-10.89,0,10.6,10.6,0,0,1-3.84-4.02,11.641,11.641,0,0,1-1.41-5.73,11.764,11.764,0,0,1,1.41-5.79,10.6,10.6,0,0,1,3.84-4.02,10.819,10.819,0,0,1,10.89,0,10.451,10.451,0,0,1,3.78,4.02,11.969,11.969,0,0,1,1.38,5.79A11.843,11.843,0,0,1,111.727,35.439Z" transform="translate(-9.117 -13.029)"/>
    <path class="cls-1" d="M128.97,60.133a2.975,2.975,0,0,1-3.06-3.06V29.713a17.322,17.322,0,0,1,2.22-8.52,16.049,16.049,0,0,1,5.88-5.97,16.562,16.562,0,0,1,22.77,5.97,16.685,16.685,0,0,1,2.19,8.52,17.68,17.68,0,0,1-2.01,8.49,15.565,15.565,0,0,1-5.49,5.94,15.17,15.17,0,0,1-14.37.72,15.425,15.425,0,0,1-5.07-3.99v16.2a3.026,3.026,0,0,1-.84,2.19A2.946,2.946,0,0,1,128.97,60.133Zm13.44-19.2a10.233,10.233,0,0,0,5.46-1.47,10.67,10.67,0,0,0,3.81-4.02,11.646,11.646,0,0,0,1.41-5.73,11.777,11.777,0,0,0-1.41-5.79,10.691,10.691,0,0,0-3.81-4.02,10.819,10.819,0,0,0-10.89,0,10.393,10.393,0,0,0-3.81,4.02,11.96,11.96,0,0,0-1.38,5.79,11.826,11.826,0,0,0,1.38,5.73,10.318,10.318,0,0,0,9.24,5.49Z" transform="translate(-9.117 -13.029)"/>
    <path class="cls-1" d="M168.949,60.133a2.976,2.976,0,0,1-3.06-3.06V29.713a17.322,17.322,0,0,1,2.221-8.52,16.042,16.042,0,0,1,5.88-5.97,16.563,16.563,0,0,1,22.77,5.97,16.694,16.694,0,0,1,2.189,8.52,17.691,17.691,0,0,1-2.009,8.49,15.559,15.559,0,0,1-5.491,5.94,15.17,15.17,0,0,1-14.37.72,15.411,15.411,0,0,1-5.069-3.99v16.2a3.03,3.03,0,0,1-.84,2.19A2.949,2.949,0,0,1,168.949,60.133Zm13.44-19.2a10.233,10.233,0,0,0,5.46-1.47,10.67,10.67,0,0,0,3.81-4.02,11.636,11.636,0,0,0,1.411-5.73,11.767,11.767,0,0,0-1.411-5.79,10.691,10.691,0,0,0-3.81-4.02,10.817,10.817,0,0,0-10.889,0,10.386,10.386,0,0,0-3.81,4.02,11.961,11.961,0,0,0-1.381,5.79,11.827,11.827,0,0,0,1.381,5.73,10.318,10.318,0,0,0,9.239,5.49Z" transform="translate(-9.117 -13.029)"/>
    <path class="cls-1" d="M35.647,32.259a7.833,7.833,0,0,1,1.14,4.23,8.821,8.821,0,0,1-1.47,4.98A10.107,10.107,0,0,1,31,45.009a16.9,16.9,0,0,1-7.11,1.32,22.7,22.7,0,0,1-7.77-1.29,15.373,15.373,0,0,1-5.2-2.95l-1.8,1.54.35-8.26,7.94,1.16-1.79,1.54a10.347,10.347,0,0,0,3.02,1.87,12.309,12.309,0,0,0,5.01.99,10.122,10.122,0,0,0,5.31-1.14,3.53,3.53,0,0,0,1.89-2.94,3.665,3.665,0,0,0-1.71-3.12q-1.77-1.32-6.45-2.16-6.06-1.2-8.79-3.6a7.535,7.535,0,0,1-2.73-5.88,7.316,7.316,0,0,1,1.8-5.07,10.922,10.922,0,0,1,4.62-3,17.622,17.622,0,0,1,5.88-.99,18.314,18.314,0,0,1,7.02,1.26,12.19,12.19,0,0,1,4.39,2.94l1.91-1.63-.34,8.26-7.95-1.17,2.11-1.8a8.174,8.174,0,0,0-3.24-1.98,13.582,13.582,0,0,0-4.02-.54,10.061,10.061,0,0,0-4.47.9,2.844,2.844,0,0,0-1.83,2.64,3.481,3.481,0,0,0,.57,1.95,4.8,4.8,0,0,0,2.25,1.56,28.887,28.887,0,0,0,4.92,1.35,26.756,26.756,0,0,1,7.11,2.28A9.487,9.487,0,0,1,35.647,32.259Z" transform="translate(-9.117 -13.029)"/>
  </g>
</svg>
